<?xml version="1.0" encoding="UTF-8"?>
<svg width="90px" height="80px" viewBox="0 0 90 80" version="1.1" xmlns="http://www.w3.org/2000/svg" xmlns:xlink="http://www.w3.org/1999/xlink">
    <title>noun_Alert_2181177</title>
    <g id="Page-1" stroke="none" stroke-width="1" fill="none" fill-rule="evenodd">
        <g id="noun_Alert_2181177" fill="#FF0000" fill-rule="nonzero">
            <path d="M89.4,72.7 L49,2.7 C47.2,-0.3 42.9,-0.3 41.1,2.7 L0.7,72.7 C-1.1,75.7 1.1,79.5 4.7,79.5 L85.6,79.5 C88.9,79.6 91.1,75.8 89.4,72.7 Z M45,67 C42.5,67 40.6,65 40.6,62.6 C40.6,60.1 42.6,58.2 45,58.2 C47.5,58.2 49.4,60.2 49.4,62.6 C49.4,65 47.5,67 45,67 Z M51.1,29.6 L48.7,49.7 C48.7,51.7 47,53.4 45,53.4 C43,53.4 41.3,51.7 41.3,49.7 L38.9,29.6 L38.8,28.8 C38.8,26.3 41.6,24.3 45,24.3 C48.4,24.3 51.2,26.3 51.2,28.8 L51.1,29.6 Z" id="Shape"></path>
        </g>
    </g>
</svg>