<?xml version="1.0" encoding="UTF-8"?>
<svg width="84px" height="84px" viewBox="0 0 84 84" version="1.1" xmlns="http://www.w3.org/2000/svg" xmlns:xlink="http://www.w3.org/1999/xlink">
    <title>noun_log in_755801</title>
    <g id="Page-1" stroke="none" stroke-width="1" fill="none" fill-rule="evenodd">
        <g id="noun_log-in_755801" transform="translate(42.000000, 42.000000) scale(-1, 1) translate(-42.000000, -42.000000) " fill="#000000" fill-rule="nonzero">
            <g id="Group">
                <path d="M81.6,33.1 L51.8,3.1 C50.3,1.6 48.2,0.7 46,0.7 C43.8,0.7 41.8,1.6 40.2,3.1 L10.4,33.1 C8.9,34.6 8,36.7 8,38.8 L8,40.9 L16.6,40.9 L16.6,39 L46,9.6 L75.3,39 L75.3,74.6 L16.7,74.6 L16.7,60.8 L8.1,60.8 L8.1,75.1 C8.1,79.6 11.7,83.2 16.2,83.2 L75.8,83.2 C80.3,83.2 83.9,79.6 83.9,75.1 L83.9,38.8 C84,36.7 83.1,34.6 81.6,33.1 Z" id="Path"></path>
                <path d="M50.2,48.9 L36,34.6 C35.5,34.1 34.7,33.8 34,33.8 C33.3,33.8 32.6,34.1 32,34.6 L30.4,36.2 C29.9,36.7 29.6,37.4 29.6,38.2 C29.6,38.9 29.9,39.7 30.4,40.2 L36.8,46.6 L2.6,46.6 C1,46.7 0,48 0,49.5 L0,52.3 C0,53.8 1,55.1 2.6,55.1 L36.8,55.1 L30.4,61.5 C29.9,62 29.6,62.7 29.6,63.5 C29.6,64.3 29.9,65 30.4,65.5 L32,67.1 C32.5,67.6 33.2,67.9 34,67.9 C34.7,67.9 35.5,67.6 36,67.1 L50.3,52.8 C50.8,52.3 51.1,51.6 51.1,50.8 C51.1,50 50.8,49.4 50.2,48.9 Z" id="Path"></path>
            </g>
        </g>
    </g>
</svg>